HIERARCHY
ROOT Hips
{
	OFFSET 	 0.0	 0.0	 0.0
	CHANNELS 6 Xposition Yposition Zposition Xrotation Yrotation Zrotation 
	JOINT Spine
	{
		OFFSET 	 15.3169	 0.0	 -0.012192
		CHANNELS 3 Xrotation Yrotation Zrotation 
		JOINT Spine_1
		{
			OFFSET 	 15.3176	 0.0	 -0.012192
			CHANNELS 3 Xrotation Yrotation Zrotation 
			JOINT Neck
			{
				OFFSET 	 19.9142	 -1e-06	 1.563377
				CHANNELS 3 Xrotation Yrotation Zrotation 
				JOINT Head
				{
					OFFSET 	 6.926521	 0.0	 0.0
					CHANNELS 3 Xrotation Yrotation Zrotation 
					End Site
					{
						OFFSET 	 20.766598	 0.0	 0.0
					}
				}
				JOINT LeftShoulder
				{
					OFFSET 	 -6.201691	 -7.28423	 0.708832
					CHANNELS 3 Xrotation Yrotation Zrotation 
					JOINT LeftArm
					{
						OFFSET 	 14.107998	 1.3e-05	 0.0
						CHANNELS 3 Xrotation Yrotation Zrotation 
						JOINT LeftForeArm
						{
							OFFSET 	 28.5802	 0.0	 0.0
							CHANNELS 3 Xrotation Yrotation Zrotation 
							JOINT LeftHand
							{
								OFFSET 	 27.091896	 0.0	 0.0
								CHANNELS 3 Xrotation Yrotation Zrotation 
								JOINT Bip01_L_Finger0
								{
									OFFSET 	 2.676086	 3.19825	 0.628212
									CHANNELS 3 Xrotation Yrotation Zrotation 
									JOINT Bip01_L_Finger01
									{
										OFFSET 	 2.82782	 0.0	 0.0
										CHANNELS 3 Xrotation Yrotation Zrotation 
										JOINT Bip01_L_Finger02
										{
											OFFSET 	 3.100327	 0.0	 0.0
											CHANNELS 3 Xrotation Yrotation Zrotation 
											End Site
											{
												OFFSET 	 2.683968	 0.0	 0.0
											}
										}
									}
								}
								JOINT Bip01_L_Finger1
								{
									OFFSET 	 9.438972	 2.24244	 -0.203926
									CHANNELS 3 Xrotation Yrotation Zrotation 
									JOINT Bip01_L_Finger11
									{
										OFFSET 	 3.12896	 0.0	 0.0
										CHANNELS 3 Xrotation Yrotation Zrotation 
										JOINT Bip01_L_Finger12
										{
											OFFSET 	 2.379051	 0.0	 0.0
											CHANNELS 3 Xrotation Yrotation Zrotation 
											End Site
											{
												OFFSET 	 2.09993	 0.0	 0.0
											}
										}
									}
								}
								JOINT Bip01_L_Finger2
								{
									OFFSET 	 9.55928	 -0.145352	 -0.186424
									CHANNELS 3 Xrotation Yrotation Zrotation 
									JOINT Bip01_L_Finger21
									{
										OFFSET 	 3.801407	 0.0	 0.0
										CHANNELS 3 Xrotation Yrotation Zrotation 
										JOINT Bip01_L_Finger22
										{
											OFFSET 	 2.848793	 0.0	 0.0
											CHANNELS 3 Xrotation Yrotation Zrotation 
											End Site
											{
												OFFSET 	 2.01886	 0.0	 0.0
											}
										}
									}
								}
								JOINT Bip01_L_Finger3
								{
									OFFSET 	 8.993629	 -2.30169	 0.226974
									CHANNELS 3 Xrotation Yrotation Zrotation 
									JOINT Bip01_L_Finger31
									{
										OFFSET 	 3.369652	 0.0	 0.0
										CHANNELS 3 Xrotation Yrotation Zrotation 
										JOINT Bip01_L_Finger32
										{
											OFFSET 	 2.444229	 0.0	 0.0
											CHANNELS 3 Xrotation Yrotation Zrotation 
											End Site
											{
												OFFSET 	 2.057808	 0.0	 0.0
											}
										}
									}
								}
								JOINT Bip01_L_Finger4
								{
									OFFSET 	 8.023811	 -3.97473	 1.201897
									CHANNELS 3 Xrotation Yrotation Zrotation 
									JOINT Bip01_L_Finger41
									{
										OFFSET 	 2.908783	 0.0	 0.0
										CHANNELS 3 Xrotation Yrotation Zrotation 
										JOINT Bip01_L_Finger42
										{
											OFFSET 	 1.535797	 0.0	 0.0
											CHANNELS 3 Xrotation Yrotation Zrotation 
											End Site
											{
												OFFSET 	 1.630142	 0.0	 0.0
											}
										}
									}
								}
							}
						}
					}
				}
				JOINT RightShoulder
				{
					OFFSET 	 -6.20549	 7.280139	 0.70887
					CHANNELS 3 Xrotation Yrotation Zrotation 
					JOINT RightArm
					{
						OFFSET 	 14.107998	 -1e-05	 0.0
						CHANNELS 3 Xrotation Yrotation Zrotation 
						JOINT RightForeArm
						{
							OFFSET 	 28.5802	 -1.9e-05	 0.0
							CHANNELS 3 Xrotation Yrotation Zrotation 
							JOINT RightHand
							{
								OFFSET 	 27.092003	 0.0	 0.0
								CHANNELS 3 Xrotation Yrotation Zrotation 
								JOINT Bip01_R_Finger0
								{
									OFFSET 	 2.676079	 -3.19825	 0.628212
									CHANNELS 3 Xrotation Yrotation Zrotation 
									JOINT Bip01_R_Finger01
									{
										OFFSET 	 2.82782	 0.0	 0.0
										CHANNELS 3 Xrotation Yrotation Zrotation 
										JOINT Bip01_R_Finger02
										{
											OFFSET 	 3.100342	 0.0	 0.0
											CHANNELS 3 Xrotation Yrotation Zrotation 
											End Site
											{
												OFFSET 	 2.68396	 0.0	 0.0
											}
										}
									}
								}
								JOINT Bip01_R_Finger1
								{
									OFFSET 	 9.438957	 -2.242439	 -0.203918
									CHANNELS 3 Xrotation Yrotation Zrotation 
									JOINT Bip01_R_Finger11
									{
										OFFSET 	 3.12896	 0.0	 0.0
										CHANNELS 3 Xrotation Yrotation Zrotation 
										JOINT Bip01_R_Finger12
										{
											OFFSET 	 2.379051	 0.0	 0.0
											CHANNELS 3 Xrotation Yrotation Zrotation 
											End Site
											{
												OFFSET 	 2.099922	 0.0	 0.0
											}
										}
									}
								}
								JOINT Bip01_R_Finger2
								{
									OFFSET 	 9.559288	 0.145353	 -0.186417
									CHANNELS 3 Xrotation Yrotation Zrotation 
									JOINT Bip01_R_Finger21
									{
										OFFSET 	 3.801407	 0.0	 0.0
										CHANNELS 3 Xrotation Yrotation Zrotation 
										JOINT Bip01_R_Finger22
										{
											OFFSET 	 2.848793	 0.0	 0.0
											CHANNELS 3 Xrotation Yrotation Zrotation 
											End Site
											{
												OFFSET 	 2.01886	 0.0	 0.0
											}
										}
									}
								}
								JOINT Bip01_R_Finger3
								{
									OFFSET 	 8.993629	 2.301691	 0.226974
									CHANNELS 3 Xrotation Yrotation Zrotation 
									JOINT Bip01_R_Finger31
									{
										OFFSET 	 3.369652	 0.0	 0.0
										CHANNELS 3 Xrotation Yrotation Zrotation 
										JOINT Bip01_R_Finger32
										{
											OFFSET 	 2.444221	 0.0	 0.0
											CHANNELS 3 Xrotation Yrotation Zrotation 
											End Site
											{
												OFFSET 	 2.057823	 0.0	 0.0
											}
										}
									}
								}
								JOINT Bip01_R_Finger4
								{
									OFFSET 	 8.023811	 3.97473	 1.20192
									CHANNELS 3 Xrotation Yrotation Zrotation 
									JOINT Bip01_R_Finger41
									{
										OFFSET 	 2.908783	 0.0	 0.0
										CHANNELS 3 Xrotation Yrotation Zrotation 
										JOINT Bip01_R_Finger42
										{
											OFFSET 	 1.535797	 0.0	 0.0
											CHANNELS 3 Xrotation Yrotation Zrotation 
											End Site
											{
												OFFSET 	 1.630142	 0.0	 0.0
											}
										}
									}
								}
							}
						}
					}
				}
			}
		}
	}
	JOINT LeftUpLeg
	{
		OFFSET 	 -12.021299	 -8.83685	 -0.372498
		CHANNELS 3 Xrotation Yrotation Zrotation 
		JOINT LeftLeg
		{
			OFFSET 	 39.9035	 0.0	 0.0
			CHANNELS 3 Xrotation Yrotation Zrotation 
			JOINT LeftFoot
			{
				OFFSET 	 39.6689	 0.0	 0.0
				CHANNELS 3 Xrotation Yrotation Zrotation 
				JOINT Bip01_L_Toe0
				{
					OFFSET 	 10.162399	 -2e-06	 13.629601
					CHANNELS 3 Xrotation Yrotation Zrotation 
					End Site
					{
						OFFSET 	 8.38147	 0.0	 0.0
					}
				}
			}
		}
	}
	JOINT RightUpLeg
	{
		OFFSET 	 -12.021299	 8.836849	 -0.372444
		CHANNELS 3 Xrotation Yrotation Zrotation 
		JOINT RightLeg
		{
			OFFSET 	 39.9035	 0.0	 0.0
			CHANNELS 3 Xrotation Yrotation Zrotation 
			JOINT RightFoot
			{
				OFFSET 	 39.6689	 0.0	 0.0
				CHANNELS 3 Xrotation Yrotation Zrotation 
				JOINT Bip01_R_Toe0
				{
					OFFSET 	 10.162399	 -2e-06	 13.629601
					CHANNELS 3 Xrotation Yrotation Zrotation 
					End Site
					{
						OFFSET 	 8.38147	 0.0	 0.0
					}
				}
			}
		}
	}
}

MOTION
Frames: 5
Frame Time: 0.013889
-1.33761984027 92.697495 -32.6145990539 -179.458775414 1.95430116205 -90.5621956849 0.108764 -0.057806 -2.61457 -0.0 0.0 0.0 1.385777 -23.501533 -1.674685 1.935166 14.235411 -0.677809 166.681993 -12.621843 107.394577 47.622568 27.836988 26.233109 -2e-06 49.684596 -1.3e-05 -116.754202 13.149359 5.602149 -0.0 0.0 0.0 -0.0 0.0 0.0 -0.0 0.0 0.0 -0.0 0.0 0.0 -0.0 0.0 0.0 -0.0 0.0 0.0 -0.0 0.0 0.0 -0.0 0.0 0.0 -0.0 0.0 0.0 -0.0 0.0 0.0 -0.0 0.0 0.0 -0.0 0.0 0.0 -0.0 0.0 0.0 -0.0 0.0 0.0 -0.0 0.0 0.0 -171.996138 -12.936114 -106.991944 -29.533287 32.596682 -41.60021 -2e-06 50.1537 -1.2e-05 100.732306 4.167415 7.263343 -0.0 0.0 0.0 -0.0 0.0 0.0 -0.0 0.0 0.0 -0.0 0.0 0.0 -0.0 0.0 0.0 -0.0 0.0 0.0 -0.0 0.0 0.0 -0.0 0.0 0.0 -0.0 0.0 0.0 -0.0 0.0 0.0 -0.0 0.0 0.0 -0.0 0.0 0.0 -0.0 0.0 0.0 -0.0 0.0 0.0 -0.0 0.0 0.0 11.8330400001 5.01024800004 179.965666 -0.0 21.691248 -4e-06 3.873815 -17.463513 1.970051 90.0 -1.00000000713e-06 75.0 -18.067181 21.993491 178.56169 3e-06 50.90568 -1.3e-05 -4.063908 -2.175149 -3.226336 90.0 -1.00000000713e-06 75.0
-1.39281461334 92.683907 -33.74015888 -179.443438028 1.90715375502 -90.623914284 -0.028385 -0.040898 -2.60811 -0.0 0.0 0.0 1.469054 -23.485372 -1.34351 2.037502 14.228369 -0.709989 166.539789 -12.703382 107.33204 47.380664 27.750939 26.113196 -5e-06 50.300501 -1.1e-05 -116.932074 13.786534 6.008379 -0.0 0.0 0.0 -0.0 0.0 0.0 -0.0 0.0 0.0 -0.0 0.0 0.0 -0.0 0.0 0.0 -0.0 0.0 0.0 -0.0 0.0 0.0 -0.0 0.0 0.0 -0.0 0.0 0.0 -0.0 0.0 0.0 -0.0 0.0 0.0 -0.0 0.0 0.0 -0.0 0.0 0.0 -0.0 0.0 0.0 -0.0 0.0 0.0 -172.107675 -12.9177 -107.011956 -29.523503 32.501349 -41.598625 -5e-06 50.019603 -1.4e-05 100.675855 4.05872 7.29457 -0.0 0.0 0.0 -0.0 0.0 0.0 -0.0 0.0 0.0 -0.0 0.0 0.0 -0.0 0.0 0.0 -0.0 0.0 0.0 -0.0 0.0 0.0 -0.0 0.0 0.0 -0.0 0.0 0.0 -0.0 0.0 0.0 -0.0 0.0 0.0 -0.0 0.0 0.0 -0.0 0.0 0.0 -0.0 0.0 0.0 -0.0 0.0 0.0 11.8179530002 3.61679600007 -179.843279 -1e-06 20.611768 -3e-06 3.900831 -17.754233 1.83423 90.0 -1.00000000713e-06 75.0 -18.339473 22.743567 179.409344 1.3e-05 48.683727 -1.1e-05 -4.247735 -3.055845 -2.92191 90.0 -1.00000000713e-06 75.0
-1.44438235482 92.632401 -34.8897810599 -179.440745882 1.87531714657 -90.65833265 -0.147752 -0.025635 -2.612546 -0.0 0.0 0.0 1.563726 -23.416873 -0.989996 2.123332 14.197844 -0.780704 166.442603 -12.727615 107.320012 47.136088 27.677967 25.98971 -0.0 50.9402 -1.2e-05 -117.106967 14.375515 6.412754 -0.0 0.0 0.0 -0.0 0.0 0.0 -0.0 0.0 0.0 -0.0 0.0 0.0 -0.0 0.0 0.0 -0.0 0.0 0.0 -0.0 0.0 0.0 -0.0 0.0 0.0 -0.0 0.0 0.0 -0.0 0.0 0.0 -0.0 0.0 0.0 -0.0 0.0 0.0 -0.0 0.0 0.0 -0.0 0.0 0.0 -0.0 0.0 0.0 -172.21552 -12.873344 -107.009204 -29.529705 32.401284 -41.598277 7e-06 49.857208 -1.4e-05 100.606392 3.880923 7.26659 -0.0 0.0 0.0 -0.0 0.0 0.0 -0.0 0.0 0.0 -0.0 0.0 0.0 -0.0 0.0 0.0 -0.0 0.0 0.0 -0.0 0.0 0.0 -0.0 0.0 0.0 -0.0 0.0 0.0 -0.0 0.0 0.0 -0.0 0.0 0.0 -0.0 0.0 0.0 -0.0 0.0 0.0 -0.0 0.0 0.0 -0.0 0.0 0.0 11.8867970001 2.22935800001 -179.680161 -0.0 19.527885 -3e-06 3.989448 -18.052055 1.716029 90.0 -1.00000000713e-06 75.0 -18.588083 23.372076 -179.792357 8e-06 46.166283 -1.1e-05 -4.493247 -3.970486 -2.460912 90.0 -1.00000000713e-06 75.0
-1.46301507074 92.577103 -36.0523458891 -179.455477146 1.85243443519 -90.6802089546 -0.262049 0.052135 -2.589362 -0.0 0.0 0.0 1.647759 -23.40962 -0.681281 2.212784 14.208833 -0.840249 166.345878 -12.780085 107.287227 46.936394 27.611269 25.894048 -4e-06 51.581814 -1.4e-05 -117.321681 14.992318 6.810656 -0.0 0.0 0.0 -0.0 0.0 0.0 -0.0 0.0 0.0 -0.0 0.0 0.0 -0.0 0.0 0.0 -0.0 0.0 0.0 -0.0 0.0 0.0 -0.0 0.0 0.0 -0.0 0.0 0.0 -0.0 0.0 0.0 -0.0 0.0 0.0 -0.0 0.0 0.0 -0.0 0.0 0.0 -0.0 0.0 0.0 -0.0 0.0 0.0 -172.299703 -12.848045 -107.01712 -29.540418 32.292236 -41.589145 3e-06 49.7126 -1.5e-05 100.509116 3.721728 7.305581 -0.0 0.0 0.0 -0.0 0.0 0.0 -0.0 0.0 0.0 -0.0 0.0 0.0 -0.0 0.0 0.0 -0.0 0.0 0.0 -0.0 0.0 0.0 -0.0 0.0 0.0 -0.0 0.0 0.0 -0.0 0.0 0.0 -0.0 0.0 0.0 -0.0 0.0 0.0 -0.0 0.0 0.0 -0.0 0.0 0.0 -0.0 0.0 0.0 11.9049870001 0.878975000006 -179.533312 -0.0 18.501499 -3e-06 3.980986 -18.38237 1.565735 90.0 -1.00000000713e-06 75.0 -18.792658 23.887152 -178.978854 5e-06 43.369956 -9e-06 -4.721732 -4.867075 -1.995365 90.0 -1.00000000713e-06 75.0
-1.51313806017 92.457207 -37.2205245534 -179.50527328 1.81654190306 -90.6774700144 -0.367173 0.173796 -2.570586 -0.0 0.0 0.0 1.721624 -23.431514 -0.382088 2.284534 14.260924 -0.90068 166.250027 -12.84713 107.260466 46.766797 27.545144 25.795965 -0.0 52.211404 -1.5e-05 -117.52309 15.548521 7.218213 -0.0 0.0 0.0 -0.0 0.0 0.0 -0.0 0.0 0.0 -0.0 0.0 0.0 -0.0 0.0 0.0 -0.0 0.0 0.0 -0.0 0.0 0.0 -0.0 0.0 0.0 -0.0 0.0 0.0 -0.0 0.0 0.0 -0.0 0.0 0.0 -0.0 0.0 0.0 -0.0 0.0 0.0 -0.0 0.0 0.0 -0.0 0.0 0.0 -172.387728 -12.861528 -107.037378 -29.553774 32.167186 -41.573353 3e-06 49.535305 -1.3e-05 100.354412 3.47069 7.375405 -0.0 0.0 0.0 -0.0 0.0 0.0 -0.0 0.0 0.0 -0.0 0.0 0.0 -0.0 0.0 0.0 -0.0 0.0 0.0 -0.0 0.0 0.0 -0.0 0.0 0.0 -0.0 0.0 0.0 -0.0 0.0 0.0 -0.0 0.0 0.0 -0.0 0.0 0.0 -0.0 0.0 0.0 -0.0 0.0 0.0 -0.0 0.0 0.0 11.8415460003 -0.388319000009 -179.420586 1e-06 17.588618 -3e-06 3.928506 -18.631282 1.417347 90.0 -1.00000000713e-06 75.0 -18.893545 24.398296 -178.218518 4e-06 40.45644 -8e-06 -4.804965 -5.718285 -1.467276 90.0 -1.00000000713e-06 75.0
